HIERARCHY
ROOT Hips
{
	OFFSET -0.001795 -0.223333 0.028219
	CHANNELS 6 Xposition Yposition Zposition Zrotation Yrotation Xrotation 
	JOINT LeftUpLeg
	{
		OFFSET 0.069520 -0.091406 -0.006815
		CHANNELS 3 Zrotation Yrotation Xrotation
		JOINT LeftLeg
		{
			OFFSET 0.034277 -0.375199 -0.004496
			CHANNELS 3 Zrotation Yrotation Xrotation
			JOINT LeftFoot
			{
				OFFSET -0.013596 -0.397961 -0.043693
				CHANNELS 3 Zrotation Yrotation Xrotation
				JOINT LeftToe
				{
					OFFSET 0.026358 -0.055791 0.119288
					CHANNELS 3 Zrotation Yrotation Xrotation
					End Site
					{
						OFFSET 0.000000 0.000000 0.000000
					}
				}
			}
		}
	}
	JOINT RightUpLeg
	{
		OFFSET -0.067670 -0.090522 -0.004320
		CHANNELS 3 Zrotation Yrotation Xrotation
		JOINT RightLeg
		{
			OFFSET -0.038290 -0.382569 -0.008850
			CHANNELS 3 Zrotation Yrotation Xrotation
			JOINT RightFoot
			{
				OFFSET 0.015774 -0.398415 -0.042312
				CHANNELS 3 Zrotation Yrotation Xrotation
				JOINT RightToe
				{
					OFFSET -0.025372 -0.048144 0.123348
					CHANNELS 3 Zrotation Yrotation Xrotation
					End Site
					{
						OFFSET 0.000000 0.000000 0.000000
					}
				}
			}
		}
	}
	JOINT Spine
	{
		OFFSET -0.002533 0.108963 -0.026696
		CHANNELS 3 Zrotation Yrotation Xrotation
		JOINT Spine1
		{
			OFFSET 0.005487 0.135180 0.001092
			CHANNELS 3 Zrotation Yrotation Xrotation
			JOINT Spine2
			{
				OFFSET 0.001457 0.052922 0.025425
				CHANNELS 3 Zrotation Yrotation Xrotation
				JOINT Neck
				{
					OFFSET -0.002778 0.213870 -0.042857
					CHANNELS 3 Zrotation Yrotation Xrotation
					JOINT Head
					{
						OFFSET 0.005152 0.064970 0.051349
						CHANNELS 3 Zrotation Yrotation Xrotation
						End Site
						{
							OFFSET 0.000000 0.000000 0.000000
						}
					}
				}
				JOINT LeftShoulder
				{
					OFFSET 0.078845 0.121749 -0.034090
					CHANNELS 3 Zrotation Yrotation Xrotation
					JOINT LeftArm
					{
						OFFSET 0.090977 0.030469 -0.008868
						CHANNELS 3 Zrotation Yrotation Xrotation
						JOINT LeftForeArm
						{
							OFFSET 0.259612 -0.012772 -0.027456
							CHANNELS 3 Zrotation Yrotation Xrotation
							JOINT LeftHand
							{
								OFFSET 0.249234 0.008986 -0.001171
								CHANNELS 3 Zrotation Yrotation Xrotation
								End Site
								{
									OFFSET 0.000000 0.000000 0.000000
								}
							}
						}
					}
				}
				JOINT RightShoulder
				{
					OFFSET -0.081759 0.118833 -0.038615
					CHANNELS 3 Zrotation Yrotation Xrotation
					JOINT RightArm
					{
						OFFSET -0.096012 0.032551 -0.009143
						CHANNELS 3 Zrotation Yrotation Xrotation
						JOINT RightForeArm
						{
							OFFSET -0.253742 -0.013329 -0.021401
							CHANNELS 3 Zrotation Yrotation Xrotation
							JOINT RightHand
							{
								OFFSET -0.255298 0.007772 -0.005559
								CHANNELS 3 Zrotation Yrotation Xrotation
								End Site
								{
									OFFSET 0.000000 0.000000 0.000000
								}
							}
						}
					}
				}
			}
		}
	}
}
MOTION
Frames: 13
Frame Time: 0.050000
0.000000 0.951754 0.000000 -0.320769 2.905844 -3.494826 5.111253 0.100474 3.561914 -4.757618 0.478323 -2.107992 1.013507 5.518777 8.500565 0.000000 0.000000 0.000000 -3.329462 -0.182553 2.826105 3.704667 -0.422306 0.293809 -3.278241 -10.303651 8.784554 0.000000 0.000000 0.000000 -2.250273 -0.110302 4.679574 3.766167 -0.496292 -19.999928 0.489037 -1.187381 24.263690 -2.584638 3.003984 -19.699046 0.000000 0.000000 0.000000 -18.829731 -9.664421 3.971981 -51.482906 -47.900181 13.852593 68.456809 -66.529369 -42.232586 0.000000 0.000000 0.000000 11.161429 15.823550 6.725630 53.634539 40.161366 11.563162 -54.549437 74.386782 -36.411164 0.000000 0.000000 0.000000 
0.000244 0.949875 0.001226 -1.000949 2.389216 -3.334909 5.938650 0.093505 4.240199 -5.335038 0.518479 -3.121666 0.926691 5.064958 7.734942 0.000000 0.000000 0.000000 -3.137907 -0.186373 2.867453 4.373009 -0.496328 0.691361 -2.965075 -9.511403 7.847062 0.000000 0.000000 0.000000 -1.959522 -0.117690 4.584786 4.144020 -0.582873 -20.554967 0.492962 -1.667425 24.776634 -2.243919 2.665471 -19.741217 0.000000 0.000000 0.000000 -20.008110 -10.740663 4.821374 -50.474108 -48.891231 13.954050 68.393427 -61.766676 -38.372497 0.000000 0.000000 0.000000 12.096352 17.045239 7.260566 52.785207 41.210149 11.747203 -59.895118 73.645165 -40.518763 0.000000 0.000000 0.000000 
0.000366 0.949321 0.002393 -0.689034 1.847704 -3.361336 5.572397 0.108831 3.888595 -5.030204 0.516701 -1.760249 0.926895 5.020462 7.729467 0.000000 0.000000 0.000000 -3.794308 -0.154887 2.831117 4.798827 -0.542721 1.218043 -3.203315 -10.166893 8.422074 0.000000 0.000000 0.000000 -1.549735 -0.134081 4.691139 3.972041 -0.509088 -21.184422 -0.227366 -0.668509 24.936760 -1.674246 2.365832 -18.521855 0.000000 0.000000 0.000000 -20.331628 -10.238658 4.369873 -53.813604 -49.476603 15.606788 68.474123 -61.295141 -38.134578 0.000000 0.000000 0.000000 12.935481 16.665201 7.301384 54.037135 43.931453 13.649664 -62.536408 70.137762 -39.778988 0.000000 0.000000 0.000000 
0.000209 0.948409 0.003630 -0.862697 2.532729 -4.164951 6.118415 0.103303 4.519324 -5.173988 0.526182 -1.421695 0.213287 3.500879 6.910387 0.000000 0.000000 0.000000 -3.774444 -0.223535 3.571164 5.027601 -0.586430 1.924255 -2.817134 -9.259587 8.093192 0.000000 0.000000 0.000000 -2.236857 -0.127480 5.204179 4.742354 -0.676989 -21.746307 -0.552362 -1.462493 25.371706 -1.276540 2.059104 -19.143881 0.000000 0.000000 0.000000 -21.067647 -9.943798 4.340264 -56.410166 -50.744147 17.465844 66.068230 -59.074007 -34.645916 0.000000 0.000000 0.000000 12.738796 17.255177 7.491095 53.072433 46.271108 14.487348 -63.055337 63.862028 -35.850426 0.000000 0.000000 0.000000 
-0.000067 0.948633 0.005014 -0.952366 2.608543 -4.310490 5.924443 0.119050 4.691302 -4.778241 0.488745 -1.511665 0.204162 3.800269 7.712769 0.000000 0.000000 0.000000 -3.627815 -0.270024 4.102617 4.760819 -0.550414 1.457714 -2.562635 -8.870881 8.704606 0.000000 0.000000 0.000000 -2.270895 -0.124554 5.069405 5.017970 -0.774053 -21.415258 -1.089083 -1.302818 24.699945 -0.916868 1.888315 -19.809260 0.000000 0.000000 0.000000 -21.006984 -10.177993 4.368357 -59.025148 -50.990814 18.890431 68.900552 -56.460382 -34.693219 0.000000 0.000000 0.000000 12.782581 17.112121 7.461480 53.449193 48.921530 16.179015 -62.361698 56.235793 -30.192489 0.000000 0.000000 0.000000 
-0.000403 0.948804 0.006327 -1.208692 2.911717 -4.722166 6.208152 0.119922 5.237643 -4.673091 0.476348 -1.506347 -0.112249 2.998632 7.043058 0.000000 0.000000 0.000000 -3.429758 -0.321670 4.574717 4.933563 -0.577599 1.412212 -2.261294 -8.198809 8.560215 0.000000 0.000000 0.000000 -2.340647 -0.113225 4.500427 5.144003 -0.829259 -21.062258 -1.244021 -1.787498 25.097976 -0.846230 1.772232 -19.397303 0.000000 0.000000 0.000000 -20.922153 -9.763023 4.220011 -56.296043 -52.262635 18.397518 67.525161 -51.654836 -30.524286 0.000000 0.000000 0.000000 11.931132 18.053683 7.739909 49.955060 51.277766 15.865456 -62.834126 47.700452 -25.181989 0.000000 0.000000 0.000000 
-0.000682 0.949458 0.007386 -1.227707 3.142308 -4.896203 6.263963 0.116968 5.336756 -4.424546 0.451843 -1.552443 -0.406491 2.848770 7.924297 0.000000 0.000000 0.000000 -3.272572 -0.346418 4.748218 4.581261 -0.535525 1.527668 -2.036110 -7.659957 8.334767 0.000000 0.000000 0.000000 -2.409491 -0.106551 4.219396 5.182957 -0.807377 -21.462689 -1.459824 -1.556412 25.405992 -0.239007 1.438576 -19.577585 0.000000 0.000000 0.000000 -19.250819 -10.178397 4.296285 -50.761144 -53.476397 16.508628 68.277620 -44.086661 -26.149564 0.000000 0.000000 0.000000 10.233838 17.444124 7.310637 45.505142 52.896780 14.677110 -62.837587 39.386905 -20.078897 0.000000 0.000000 0.000000 
-0.000842 0.950052 0.008041 -1.386448 3.357798 -5.226005 6.324718 0.111933 5.318005 -3.902780 0.404121 -1.099964 -0.804270 2.198983 8.005812 0.000000 0.000000 0.000000 -2.863224 -0.391671 5.011741 4.229075 -0.492649 1.620667 -2.330509 -8.206928 8.149005 0.000000 0.000000 0.000000 -2.185439 -0.105082 3.787334 5.231510 -0.870328 -20.716330 -1.840798 -1.240871 25.089513 0.034886 1.316442 -19.254747 0.000000 0.000000 0.000000 -18.033091 -10.750156 4.416497 -39.896981 -54.272328 12.019625 65.029563 -35.643030 -19.901277 0.000000 0.000000 0.000000 7.980147 17.254448 6.987298 37.288960 53.313165 11.278782 -62.101907 30.812598 -14.945763 0.000000 0.000000 0.000000 
-0.001009 0.950521 0.008134 -1.462171 3.585964 -5.544225 6.312030 0.112512 5.330524 -3.356205 0.350771 -0.753158 -1.167250 1.494894 7.820202 0.000000 0.000000 0.000000 -2.691679 -0.420099 5.194699 4.075982 -0.475467 1.579160 -2.350249 -8.225229 8.127045 0.000000 0.000000 0.000000 -2.326276 -0.116343 4.306851 5.010310 -0.747912 -21.555234 -1.509599 -1.044348 25.589929 0.401268 1.147151 -19.630502 0.000000 0.000000 0.000000 -14.733607 -11.201926 4.464674 -28.751806 -54.429352 7.217493 60.619838 -25.398510 -12.943580 0.000000 0.000000 0.000000 4.940310 16.369190 6.262132 27.167506 52.117767 6.649164 -58.237990 22.846928 -9.830058 0.000000 0.000000 0.000000 
-0.001216 0.951496 0.007755 -1.664168 3.949380 -5.356333 6.223359 0.088436 4.727846 -3.024342 0.312229 -0.260159 -1.647396 0.610017 7.699575 0.000000 0.000000 0.000000 -2.320692 -0.440051 5.181111 3.429006 -0.395720 1.145247 -2.726293 -9.095256 8.720959 0.000000 0.000000 0.000000 -2.222004 -0.126652 4.643611 4.887394 -0.668036 -22.136021 -1.662290 -0.828404 25.524546 0.772218 1.030906 -20.427071 0.000000 0.000000 0.000000 -12.161589 -10.574793 3.997804 -17.977455 -53.799063 2.619149 54.338595 -16.503750 -7.432041 0.000000 0.000000 0.000000 2.395800 15.408630 5.606421 17.750776 48.468102 2.488298 -52.640733 15.628261 -5.570632 0.000000 0.000000 0.000000 
-0.001380 0.952126 0.007183 -1.882478 4.141180 -5.269751 6.402321 0.059985 4.258059 -2.799500 0.287665 -0.168660 -1.765713 0.568232 8.024811 0.000000 0.000000 0.000000 -1.952901 -0.445377 5.026657 3.095179 -0.355543 1.005306 -2.804641 -9.301593 9.057408 0.000000 0.000000 0.000000 -2.167603 -0.151899 5.560034 4.363598 -0.474261 -22.991733 -1.159605 -0.855898 25.833928 1.044273 0.872681 -20.547115 0.000000 0.000000 0.000000 -10.067280 -9.669547 3.536188 -9.892459 -51.118846 -0.701923 47.735695 -9.494413 -3.726091 0.000000 0.000000 0.000000 -0.026544 13.519610 4.653787 12.827150 44.777189 0.549252 -48.080692 10.896144 -3.170650 0.000000 0.000000 0.000000 
-0.001440 0.952909 0.006863 -2.155536 4.207486 -4.973537 6.736369 0.023974 3.779915 -2.981654 0.300952 0.229540 -1.684248 0.797408 8.191409 0.000000 0.000000 0.000000 -1.326054 -0.454547 4.826547 2.578292 -0.297043 0.496102 -2.725960 -9.352033 10.206261 0.000000 0.000000 0.000000 -2.185570 -0.165869 6.163354 4.461683 -0.460961 -23.640395 -1.043173 -1.019263 25.973224 0.872369 0.984432 -20.822511 0.000000 0.000000 0.000000 -8.714409 -8.088490 2.858021 -6.245191 -48.138448 -1.950849 42.996387 -6.424673 -2.268021 0.000000 0.000000 0.000000 -1.111716 12.091820 4.061893 10.398780 41.001685 -0.327770 -45.381572 8.725618 -2.202377 0.000000 0.000000 0.000000 
-0.001216 0.953136 0.007004 -2.438376 4.095262 -4.802371 6.937069 0.008577 3.597764 -3.020940 0.306051 0.143207 -1.446176 1.277090 8.334474 0.000000 0.000000 0.000000 -0.756555 -0.450713 4.545101 2.128105 -0.242773 0.403252 -2.675366 -9.321029 10.551319 0.000000 0.000000 0.000000 -2.250663 -0.178729 6.789719 4.423240 -0.427600 -24.084703 -0.602852 -1.512745 26.246984 0.887828 0.855150 -20.509229 0.000000 0.000000 0.000000 -8.275549 -6.643773 2.320965 -4.104489 -44.200511 -2.411952 39.649229 -6.633057 -2.138939 0.000000 0.000000 0.000000 -1.586158 10.543959 3.513207 8.758679 37.522661 -0.850333 -43.202678 8.425559 -2.097964 0.000000 0.000000 0.000000 
